<?xml version="1.0" encoding="utf-8"?>
<!-- Generator: Adobe Illustrator 27.5.0, SVG Export Plug-In . SVG Version: 6.00 Build 0)  -->
<svg version="1.1" id="_x2018_ëîé_x5F_1" xmlns="http://www.w3.org/2000/svg" xmlns:xlink="http://www.w3.org/1999/xlink"
	 x="0px" y="0px" viewBox="0 0 3000 2000" style="enable-background:new 0 0 3000 2000;" xml:space="preserve">
<rect style="fill:#FFFFFF;" width="3000" height="2000"/>
<g>
	<defs>
		<path id="SVGID_1_" d="M730.345,1804.559c-180.047-25.628-319.282-203.602-232.523-382.453
			C606.57,1197.925,544,1134.63,485.394,863.084C426.787,591.539,621.198,256.01,907.361,333.801
			c304.754,82.844,382.896-92.049,640.765-170.291c257.87-78.242,586.067,0,715,243.931
			c128.935,243.931,16.425,546.6,168.908,665.994c115.986,90.819,124.385,255.075,84.52,386.188
			c-50.279,165.363-169.075,274.169-336.569,315.763c-105.926,26.304-215.015,25.796-323.244,32.241
			c-103.09,6.139-206.287,12.757-309.548,15.106c-126.305,2.873-252.185-2.614-378.349-7.565
			c-68.197-2.676-136.658-5.815-204.878-6.488C886.093,1807.91,807.829,1815.588,730.345,1804.559z"/>
	</defs>
	<clipPath id="SVGID_00000049904349926202078410000010855620527019367840_">
		<use xlink:href="#SVGID_1_"  style="overflow:visible;"/>
	</clipPath>
	<g style="clip-path:url(#SVGID_00000049904349926202078410000010855620527019367840_);">
		<path style="fill:#DDE7FE;" d="M730.345,1804.559c-180.047-25.628-319.282-203.602-232.523-382.453
			C606.57,1197.925,544,1134.63,485.394,863.084C426.787,591.539,621.198,256.01,907.361,333.801
			c304.754,82.844,382.896-92.049,640.765-170.291c257.87-78.242,586.067,0,715,243.931
			c128.935,243.931,16.425,546.6,168.908,665.994c115.986,90.819,124.385,255.075,84.52,386.188
			c-50.279,165.363-169.075,274.169-336.569,315.763c-105.926,26.304-215.015,25.796-323.244,32.241
			c-103.09,6.139-206.287,12.757-309.548,15.106c-126.305,2.873-252.185-2.614-378.349-7.565
			c-68.197-2.676-136.658-5.815-204.878-6.488C886.093,1807.91,807.829,1815.588,730.345,1804.559z"/>
	</g>
	<g style="clip-path:url(#SVGID_00000049904349926202078410000010855620527019367840_);">
		<path style="fill:#F1A38D;" d="M2265.377,1306.391c-60.059,106.093-213.46,223.882-231.575,242.282
			c-1.758,1.786,1.011,10.958,7.111,25.441c16.454,39.158,57.184,117.24,98.383,193.729c14.913,27.68,29.878,55.143,43.786,80.479
			c3.432,6.264,6.796,12.406,10.087,18.371c26.935,48.937,48.354,87.198,54.896,98.848c-27.531,3.715-55.734,7.373-84.555,10.971
			l-183.475,15.44c0,0-37.881-95.436-78.763-210.404c-3.635-10.271-7.312-20.695-10.998-31.229
			c-2.045-5.858-4.095-11.757-6.131-17.673c-15.987-46.314-31.683-93.981-45.04-138.539
			c-25.38-84.684-42.302-158.075-36.643-189.421c17.347-96.102,136.6-340.13,166.556-313.927
			c19.626,17.158,11.778,40.088-1.113,78.58c-20.748,61.96-35.209,141.424-10.456,135.26c38.707-9.655,90.875-116.115,87.099-157.3
			c-2.013-21.831-13.786-119.098-27.771-144.342c-24.848-44.82-42.63-80.562-17.189-92.857c6.497-3.131,37.629,35.399,50.654,53.254
			c28.9,39.622,59.061,89.502,58.751,98.411c0,0,4.498-49.21-1.202-66.99c-13.4-41.858-16.635-80.166,3.462-82.648
			c12.719-1.564,47.831,48.705,65.997,142.792c18.15,94.075,10.335,112.624,14.335,110.17c1.563-0.951,7.584-36.182,11.184-76.237
			c2.386-26.495,7.072-53.48,6.249-78.985c-1.014-31.292,17.789-60.256,33.834-58.316c11.046,1.33,10.07,213.502,11.125,236.53
			c0,0,23.22-88.914,48.819-78.839C2311.383,1112.628,2292.425,1258.601,2265.377,1306.391z"/>
		<path style="fill:#2869D1;" d="M2366.651,1948.543c-37.919,5.775-77.507,11.45-118.586,16.997
			c-27.531,3.715-55.734,7.373-84.555,10.971c-66.341,8.252-135.913,16.126-207.974,23.489
			c-18.69-57.441-63.261-161.578-87.105-216.128c-9.46-21.685-15.66-35.539-15.66-35.539s-98.864-37.858-94.404-109.377
			c3.184-51.19,34.664-63.329,80.738-44.851l0.014-0.001c16.98,6.818,35.217,1.978,57.538-12.934
			c78.384-52.392,70.437-1.719,127.669-3.16c6.038-0.156,11.476-1.644,16.588-3.896c23.622-10.389,40.604-36.997,80.867-22.48
			c56.166,20.268-16.717,149.739-16.717,149.739l68.784,64.989L2366.651,1948.543z"/>
		<g>
			<path style="fill:#FFFFFF;" d="M1882.556,1735.812c1.923-6.047,8.425-9.379,14.52-7.442c6.095,1.937,9.478,8.41,7.554,14.457
				c-1.923,6.047-8.424,9.379-14.519,7.442C1884.016,1748.332,1880.633,1741.859,1882.556,1735.812z"/>
			<path style="fill:#FFFFFF;" d="M2107.24,1775.407c1.923-6.047,8.424-9.379,14.519-7.442c6.096,1.936,9.478,8.41,7.554,14.457
				c-1.923,6.047-8.424,9.379-14.519,7.442C2108.699,1787.927,2105.317,1781.454,2107.24,1775.407z"/>
			<path style="fill:#FFFFFF;" d="M2181.651,1851.284c1.973-6.203,8.641-9.621,14.893-7.633c6.253,1.987,9.723,8.625,7.75,14.829
				c-1.972,6.203-8.641,9.621-14.893,7.634C2183.148,1864.127,2179.678,1857.488,2181.651,1851.284z"/>
			<path style="fill:#FFFFFF;" d="M2048.849,1721.141c1.923-6.047,8.424-9.38,14.519-7.443c6.096,1.937,9.478,8.41,7.554,14.457
				c-1.922,6.047-8.424,9.379-14.519,7.442C2050.309,1733.661,2046.926,1727.187,2048.849,1721.141z"/>
			<path style="fill:#FFFFFF;" d="M2034.942,1814.847c1.923-6.046,8.424-9.379,14.52-7.442c6.095,1.937,9.478,8.41,7.554,14.457
				c-1.923,6.047-8.424,9.379-14.518,7.442C2036.401,1827.367,2033.019,1820.894,2034.942,1814.847z"/>
			<path style="fill:#FFFFFF;" d="M1961.275,1853.006c1.922-6.047,8.423-9.379,14.518-7.443c6.096,1.937,9.478,8.411,7.556,14.457
				c-1.923,6.047-8.424,9.38-14.519,7.443C1962.734,1865.526,1959.351,1859.054,1961.275,1853.006z"/>
			<path style="fill:#FFFFFF;" d="M2103.316,1864.329c1.972-6.204,8.641-9.621,14.894-7.634c6.252,1.987,9.722,8.626,7.75,14.83
				c-1.973,6.203-8.641,9.621-14.894,7.635C2104.812,1877.171,2101.343,1870.532,2103.316,1864.329z"/>
			<path style="fill:#FFFFFF;" d="M2127.491,1923.901c1.973-6.203,8.641-9.621,14.894-7.634c6.252,1.988,9.723,8.627,7.749,14.83
				c-1.972,6.203-8.64,9.621-14.893,7.634C2128.988,1936.744,2125.519,1930.104,2127.491,1923.901z"/>
			<path style="fill:#FFFFFF;" d="M2232.862,1919.795c1.972-6.204,8.641-9.621,14.894-7.635c6.253,1.987,9.722,8.626,7.75,14.83
				c-1.973,6.203-8.641,9.621-14.894,7.634C2234.359,1932.638,2230.889,1925.998,2232.862,1919.795z"/>
			<path style="fill:#FFFFFF;" d="M2020.286,1916.995c1.973-6.204,8.641-9.621,14.894-7.634c6.252,1.987,9.722,8.626,7.75,14.83
				c-1.973,6.203-8.641,9.621-14.894,7.634C2021.783,1929.838,2018.313,1923.198,2020.286,1916.995z"/>
			<path style="fill:#FFFFFF;" d="M1971.427,1775.289c1.924-6.046,8.424-9.379,14.519-7.442c6.096,1.937,9.478,8.41,7.556,14.457
				c-1.923,6.047-8.424,9.379-14.52,7.442C1972.887,1787.81,1969.505,1781.337,1971.427,1775.289z"/>
			<path style="fill:#FFFFFF;" d="M1964.023,1692.678c1.923-6.047,8.424-9.379,14.519-7.442c6.096,1.936,9.478,8.41,7.555,14.456
				c-1.923,6.047-8.424,9.38-14.519,7.443C1965.483,1705.198,1962.1,1698.725,1964.023,1692.678z"/>
			<path style="fill:#FFFFFF;" d="M1963.452,1618.05c1.923-6.047,8.424-9.379,14.519-7.443c6.096,1.937,9.478,8.411,7.555,14.458
				c-1.924,6.047-8.424,9.379-14.519,7.442C1964.911,1630.569,1961.528,1624.097,1963.452,1618.05z"/>
			<path style="fill:#FFFFFF;" d="M1806.298,1651.673c1.922-6.047,8.424-9.379,14.519-7.442c6.095,1.937,9.478,8.41,7.555,14.457
				c-1.924,6.047-8.424,9.379-14.519,7.442C1807.756,1664.193,1804.374,1657.72,1806.298,1651.673z"/>
			<path style="fill:#FFFFFF;" d="M1893.328,1663.728c1.922-6.047,8.424-9.379,14.518-7.442c6.096,1.937,9.479,8.409,7.555,14.457
				c-1.923,6.047-8.424,9.379-14.519,7.442C1894.787,1676.248,1891.405,1669.775,1893.328,1663.728z"/>
			<path style="fill:#FFFFFF;" d="M2038.542,1658.031c1.924-6.047,8.424-9.379,14.519-7.442c6.095,1.936,9.478,8.41,7.554,14.457
				c-1.924,6.047-8.424,9.379-14.519,7.442C2040.001,1670.551,2036.619,1664.079,2038.542,1658.031z"/>
			<path style="fill:#FFFFFF;" d="M2082.931,1594.879c1.923-6.047,8.423-9.38,14.519-7.443c6.096,1.937,9.478,8.41,7.554,14.457
				c-1.922,6.047-8.424,9.379-14.519,7.443C2084.389,1607.399,2081.007,1600.925,2082.931,1594.879z"/>
		</g>
	</g>
	<g style="clip-path:url(#SVGID_00000049904349926202078410000010855620527019367840_);">
		<path style="fill:#F1A38D;" d="M697.538,1286.49c52.521,110.019,197.344,238.209,214.134,257.826
			c1.63,1.904-1.772,10.861-8.866,24.884c-19.142,37.917-65.213,112.971-111.641,186.404
			c-16.806,26.574-33.648,52.928-49.286,77.233c-3.859,6.01-7.644,11.903-11.343,17.624c-30.279,46.942-54.311,83.617-61.649,94.783
			c27.205,5.624,55.085,11.238,83.586,16.835l181.954,28.184c0,0,44.438-92.566,93.229-204.406
			c4.342-9.993,8.736-20.135,13.147-30.387c2.449-5.701,4.904-11.443,7.347-17.203c19.175-45.088,38.153-91.545,54.582-135.065
			c31.218-82.71,53.212-154.744,49.75-186.408c-10.61-97.077-112.572-348.82-144.281-324.768
			c-20.774,15.749-14.542,39.17-4.365,78.467c16.381,63.255,25.271,143.533,1.007,135.66
			c-37.941-12.328-82.565-122.163-75.929-162.986c3.529-21.638,22.05-117.848,37.759-142.057
			c27.91-42.98,48.139-77.397,23.616-91.434c-6.263-3.576-40.004,32.692-54.241,49.596c-31.59,37.512-65.152,85.17-65.464,94.079
			c0,0-1.059-49.404,5.866-66.743c16.283-40.823,22.179-78.812,2.304-82.688c-12.579-2.447-51.108,45.254-75.784,137.848
			c-24.66,92.582-18.156,111.63-21.975,108.904c-1.494-1.058-5.045-36.623-5.846-76.831c-0.535-26.597-3.329-53.843-0.731-79.228
			c3.191-31.146-13.548-61.349-29.69-60.532c-11.112,0.557-24.919,212.282-27.575,235.18c0,0-16.97-90.316-43.208-82.048
			C665.142,1089.994,673.885,1236.932,697.538,1286.49z"/>
		<path style="fill:#2869D1;" d="M551.773,1920.027c37.424,8.402,76.521,16.822,117.113,25.217
			c27.205,5.624,55.085,11.238,83.586,16.835c65.605,12.854,134.459,25.555,205.833,37.921
			c22.646-55.999,74.364-156.779,101.951-209.534c10.948-20.974,18.098-34.362,18.098-34.362s101.261-30.879,101.795-102.534
			c0.39-51.288-30.168-65.59-77.417-50.367l-0.013-0.002c-17.414,5.618-35.269-0.48-56.498-16.911
			c-74.544-57.725-70.146-6.622-127.139-12.046c-6.013-0.576-11.333-2.439-16.276-5.042c-22.841-12.01-37.928-39.736-79.104-28.059
			c-57.441,16.306,6.245,150.539,6.245,150.539l-73.145,60.039L551.773,1920.027z"/>
		<g>
			<path style="fill:#FFFFFF;" d="M1049.513,1741.538c-1.497-6.167-7.751-9.943-13.967-8.436
				c-6.215,1.508-10.041,7.729-8.543,13.896s7.75,9.943,13.965,8.435C1047.184,1753.926,1051.009,1747.705,1049.513,1741.538z"/>
			<path style="fill:#FFFFFF;" d="M822.615,1765.384c-1.497-6.167-7.75-9.943-13.966-8.435c-6.216,1.507-10.041,7.729-8.543,13.896
				c1.497,6.167,7.75,9.943,13.966,8.435C820.288,1777.771,824.113,1771.551,822.615,1765.384z"/>
			<path style="fill:#FFFFFF;" d="M884.645,1715.318c-1.497-6.167-7.75-9.944-13.966-8.436c-6.216,1.508-10.04,7.729-8.543,13.896
				c1.496,6.167,7.75,9.943,13.965,8.435C882.317,1727.705,886.143,1721.484,884.645,1715.318z"/>
			<path style="fill:#FFFFFF;" d="M891.99,1809.765c-1.497-6.166-7.75-9.943-13.966-8.435c-6.216,1.508-10.041,7.729-8.543,13.896
				c1.497,6.167,7.75,9.943,13.965,8.435C889.662,1822.153,893.487,1815.931,891.99,1809.765z"/>
			<path style="fill:#FFFFFF;" d="M962.82,1852.964c-1.496-6.167-7.749-9.943-13.964-8.436c-6.216,1.508-10.041,7.73-8.544,13.895
				c1.498,6.167,7.75,9.944,13.966,8.437C960.493,1865.352,964.318,1859.13,962.82,1852.964z"/>
			<path style="fill:#FFFFFF;" d="M820.336,1854.363c-1.536-6.326-7.95-10.2-14.326-8.654c-6.375,1.547-10.3,7.928-8.764,14.254
				c1.536,6.325,7.95,10.2,14.326,8.654C817.948,1867.07,821.871,1860.688,820.336,1854.363z"/>
			<path style="fill:#FFFFFF;" d="M792.069,1912.106c-1.536-6.325-7.95-10.2-14.326-8.653c-6.376,1.547-10.3,7.929-8.763,14.254
				c1.535,6.326,7.949,10.2,14.325,8.653C789.681,1924.814,793.604,1918.432,792.069,1912.106z"/>
			<path style="fill:#FFFFFF;" d="M687.24,1900.669c-1.535-6.326-7.95-10.2-14.326-8.654c-6.376,1.546-10.3,7.928-8.764,14.254
				c1.536,6.325,7.95,10.2,14.326,8.653C684.852,1913.377,688.776,1906.995,687.24,1900.669z"/>
			<path style="fill:#FFFFFF;" d="M899.495,1912.685c-1.535-6.326-7.949-10.2-14.326-8.653c-6.375,1.546-10.3,7.928-8.764,14.254
				c1.536,6.325,7.95,10.2,14.326,8.653C897.106,1925.393,901.03,1919.011,899.495,1912.685z"/>
			<path style="fill:#FFFFFF;" d="M958.107,1774.728c-1.498-6.166-7.75-9.943-13.966-8.435s-10.041,7.729-8.544,13.895
				c1.497,6.167,7.75,9.943,13.966,8.435C955.779,1787.117,959.604,1780.895,958.107,1774.728z"/>
			<path style="fill:#FFFFFF;" d="M971.248,1692.834c-1.497-6.167-7.75-9.943-13.966-8.436c-6.216,1.507-10.041,7.729-8.544,13.895
				c1.497,6.167,7.75,9.944,13.966,8.436C968.92,1705.221,972.745,1699,971.248,1692.834z"/>
			<path style="fill:#FFFFFF;" d="M977.017,1618.426c-1.497-6.167-7.75-9.943-13.965-8.436c-6.216,1.508-10.041,7.73-8.544,13.897
				c1.498,6.166,7.75,9.943,13.966,8.435C974.69,1630.814,978.515,1624.593,977.017,1618.426z"/>
			<path style="fill:#FFFFFF;" d="M1131.447,1662.916c-1.497-6.167-7.75-9.943-13.966-8.435c-6.215,1.508-10.041,7.729-8.543,13.896
				s7.75,9.943,13.966,8.435C1129.12,1675.304,1132.944,1669.083,1131.447,1662.916z"/>
			<path style="fill:#FFFFFF;" d="M1043.788,1668.879c-1.496-6.167-7.75-9.943-13.964-8.435c-6.216,1.508-10.042,7.729-8.544,13.895
				c1.497,6.166,7.75,9.943,13.966,8.436C1041.461,1681.266,1045.286,1675.046,1043.788,1668.879z"/>
			<path style="fill:#FFFFFF;" d="M899.323,1653.079c-1.497-6.167-7.75-9.943-13.966-8.435c-6.216,1.507-10.041,7.729-8.543,13.896
				c1.498,6.166,7.75,9.943,13.966,8.435C896.996,1665.467,900.821,1659.246,899.323,1653.079z"/>
			<path style="fill:#FFFFFF;" d="M859.443,1586.988c-1.497-6.167-7.75-9.944-13.965-8.437c-6.216,1.508-10.041,7.729-8.543,13.896
				c1.496,6.167,7.75,9.943,13.965,8.436C857.115,1599.376,860.94,1593.154,859.443,1586.988z"/>
		</g>
	</g>
	<g style="clip-path:url(#SVGID_00000049904349926202078410000010855620527019367840_);">
		<g>
			<polygon style="fill:#050731;" points="1564.077,756.308 1561.488,749.853 1818.472,646.775 1818.472,385.625 1825.426,385.625 
				1825.426,651.478 			"/>
		</g>
		<g>
			
				<rect x="1946.875" y="566.657" transform="matrix(0.4159 -0.9094 0.9094 0.4159 495.4405 2187.0962)" style="fill:#050731;" width="6.954" height="282.392"/>
		</g>
		<polygon style="fill:#EB9D97;" points="1821.948,467.952 1978.299,524.788 1978.299,720.635 1821.948,782.261 1821.948,582.759 		
			"/>
		<polygon style="fill:#CD655C;" points="1821.948,467.952 1665.598,524.788 1665.598,720.635 1821.948,782.261 1821.948,582.759 		
			"/>
		<polygon style="fill:#E97A6D;" points="1665.598,524.788 1821.948,582.759 1978.299,524.788 1821.948,467.952 		"/>
	</g>
	<g style="clip-path:url(#SVGID_00000049904349926202078410000010855620527019367840_);">
		<g>
			<polygon style="fill:#A2BCEA;" points="1270.716,1065.35 1521.929,1047.032 1629.279,935.812 1392.861,955.169 			"/>
		</g>
		<g>
			<polygon style="fill:#BFD0F5;" points="1327.794,1310.565 1583.917,1308.441 1684.441,1172.794 1446.408,1185.216 			"/>
		</g>
		<g>
			<polygon style="fill:#7191CD;" points="1521.929,1047.032 1583.917,1308.441 1684.441,1172.794 1629.279,935.812 			"/>
		</g>
		<g>
			<polygon style="fill:#447FE0;" points="1270.716,1065.35 1521.929,1047.032 1583.917,1308.441 1327.794,1310.565 			"/>
		</g>
		<g>
			<path style="fill:#1F53A3;" d="M1524.719,1051.55l-328.976,23.989l161.975-146.11l0.835-0.068l308.484-25.259L1524.719,1051.55z
				 M1209.771,1069.552l312.7-22.802l131.888-136.643l-294.568,24.119L1209.771,1069.552z"/>
		</g>
		<g>
			<path style="fill:#1F53A3;" d="M1601.583,1388.76l-80.709-340.356l141.203-146.293l71.74,308.211L1601.583,1388.76z
				 M1526.316,1049.895l77.628,327.365l124.533-168.046l-69.158-297.117L1526.316,1049.895z"/>
		</g>
		<g>
			<path style="fill:#1F53A3;" d="M1605.888,1385.46l-332.196,2.755l-74.003-317.927l325.828-23.759l0.487,2.051L1605.888,1385.46z
				 M1277.615,1383.231l322.024-2.671l-77.966-328.789l-315.849,23.032L1277.615,1383.231z"/>
		</g>
		<g>
			<path style="fill:#1F53A3;" d="M1373.533,928.387c1.761,7.566-2.945,15.128-10.511,16.889
				c-7.566,1.761-15.128-2.945-16.889-10.511c-1.761-7.566,2.945-15.128,10.511-16.889
				C1364.21,916.115,1371.771,920.821,1373.533,928.387z"/>
		</g>
		<g>
			<path style="fill:#1F53A3;" d="M1289.354,1382.533c1.761,7.567-2.945,15.128-10.511,16.889s-15.128-2.945-16.889-10.511
				c-1.761-7.566,2.945-15.128,10.511-16.889C1280.031,1370.261,1287.593,1374.967,1289.354,1382.533z"/>
		</g>
		<g>
			<path style="fill:#1F53A3;" d="M1674.434,904.071c1.761,7.566-2.945,15.128-10.511,16.889
				c-7.566,1.761-15.128-2.945-16.889-10.511c-1.761-7.566,2.945-15.128,10.511-16.889
				C1665.111,891.799,1672.673,896.505,1674.434,904.071z"/>
		</g>
		<g>
			<path style="fill:#1F53A3;" d="M1744.905,1206.827c1.761,7.566-2.945,15.128-10.511,16.889
				c-7.566,1.761-15.128-2.945-16.889-10.511c-1.761-7.567,2.945-15.128,10.511-16.889
				C1735.583,1194.555,1743.144,1199.261,1744.905,1206.827z"/>
		</g>
		<g>
			<path style="fill:#1F53A3;" d="M1616.463,1379.821c1.761,7.566-2.945,15.128-10.511,16.889
				c-7.566,1.761-15.128-2.945-16.889-10.511s2.945-15.128,10.511-16.889C1607.141,1367.549,1614.702,1372.255,1616.463,1379.821z"
				/>
		</g>
		<g>
			<circle style="fill:#1F53A3;" cx="1524.977" cy="1048.828" r="14.066"/>
		</g>
		<g>
			
				<ellipse transform="matrix(0.6804 -0.7329 0.7329 0.6804 -401.5961 1224.299)" style="fill:#1F53A3;" cx="1202.756" cy="1072.545" rx="14.066" ry="14.067"/>
		</g>
	</g>
	<g style="clip-path:url(#SVGID_00000049904349926202078410000010855620527019367840_);">
		<g>
			<path style="fill:#6C79F6;" d="M1061.437,860.723c-107.36-34.475-166.657-149.866-132.182-257.227
				c34.475-107.36,149.867-166.656,257.227-132.181c107.36,34.475,166.656,149.867,132.181,257.227
				S1168.797,895.198,1061.437,860.723z M1185.319,474.939c-105.361-33.833-218.605,24.359-252.438,129.721
				c-33.833,105.362,24.359,218.605,129.72,252.438c105.361,33.833,218.605-24.359,252.438-129.721
				C1348.872,622.016,1290.68,508.772,1185.319,474.939z"/>
		</g>
		<g>
			<path style="fill:#6C79F6;" d="M1104.45,727.19c-0.041-0.013-0.081-0.026-0.121-0.039l-2.343-0.757l0.657-2.021l2.336,0.755
				c2.262,0.744,4.459,1.419,6.681,2.106l-0.627,2.031C1108.843,728.587,1106.649,727.896,1104.45,727.19z M1092.979,723.393
				c-2.979-1.016-5.994-2.069-8.962-3.13l0.716-2.001c2.958,1.057,5.963,2.107,8.932,3.12L1092.979,723.393z M1120.12,732.005
				l0.597-2.039c3.045,0.893,6.106,1.768,9.099,2.599l-0.569,2.047C1126.245,733.778,1123.174,732.901,1120.12,732.005z
				 M1075.102,716.999c-2.967-1.111-5.949-2.254-8.864-3.397l0.775-1.979c2.906,1.14,5.878,2.278,8.835,3.386L1075.102,716.999z
				 M1138.414,737.083l0.537-2.056c3.034,0.794,6.119,1.576,9.171,2.324l-0.505,2.064
				C1144.554,738.664,1141.458,737.88,1138.414,737.083z M1057.425,710.068c-2.934-1.203-5.88-2.44-8.755-3.675l0.838-1.953
				c2.866,1.231,5.801,2.463,8.723,3.661L1057.425,710.068z M1156.856,741.602l0.473-2.072c3.082,0.703,6.192,1.386,9.241,2.029
				l-0.438,2.079C1163.07,742.993,1159.949,742.308,1156.856,741.602z M1039.976,702.572c-2.892-1.3-5.795-2.635-8.629-3.971
				l0.906-1.923c2.823,1.33,5.714,2.661,8.592,3.955L1039.976,702.572z M1175.44,745.518l0.402-2.087
				c3.124,0.602,6.255,1.176,9.304,1.707l-0.365,2.093C1181.719,746.699,1178.577,746.122,1175.44,745.518z M1022.794,694.474
				c-2.843-1.405-5.695-2.85-8.474-4.292l0.979-1.886c2.768,1.437,5.606,2.874,8.437,4.274L1022.794,694.474z M1194.155,748.77
				l0.324-2.1c3.142,0.484,6.292,0.937,9.36,1.346l-0.281,2.106C1200.476,749.712,1197.312,749.257,1194.155,748.77z
				 M1005.935,685.714c-2.804-1.534-5.592-3.101-8.285-4.656l1.063-1.841c2.68,1.548,5.453,3.107,8.241,4.632L1005.935,685.714z
				 M1212.99,751.272l0.233-2.112c3.162,0.349,6.326,0.66,9.407,0.924l-0.182,2.117
				C1219.352,751.935,1216.169,751.623,1212.99,751.272z M989.481,676.198c-2.745-1.682-5.449-3.392-8.037-5.083l1.162-1.779
				c2.572,1.68,5.258,3.379,7.986,5.05L989.481,676.198z M1231.932,752.885l0.124-2.122c3.188,0.186,6.362,0.324,9.437,0.409
				l-0.059,2.124C1238.338,753.211,1235.14,753.073,1231.932,752.885z M973.564,665.785c-2.661-1.866-5.248-3.754-7.69-5.611
				l1.287-1.691c2.42,1.841,4.984,3.713,7.623,5.563L973.564,665.785z M1250.949,753.393l-0.017-2.125
				c3.224-0.025,6.396-0.115,9.43-0.267l0.105,2.122C1257.405,753.278,1254.203,753.369,1250.949,753.393z M958.424,654.239
				c-2.525-2.111-4.928-4.236-7.144-6.318l1.455-1.549c2.186,2.053,4.56,4.151,7.053,6.237L958.424,654.239z M1269.972,752.414
				l-0.215-2.114c3.238-0.328,6.375-0.744,9.325-1.238l0.352,2.096C1276.438,751.659,1273.255,752.082,1269.972,752.414z
				 M944.555,641.138c-2.276-2.483-4.335-4.963-6.119-7.369l1.706-1.266c1.742,2.348,3.752,4.769,5.979,7.199L944.555,641.138z
				 M1288.793,749.192l-0.532-2.057c3.207-0.829,6.196-1.789,8.885-2.854l0.783,1.975
				C1295.16,747.353,1292.086,748.341,1288.793,749.192z M933.273,625.649c-1.628-3.102-2.803-6.145-3.492-9.042l2.068-0.491
				c0.648,2.725,1.76,5.6,3.305,8.545L933.273,625.649z M1306.549,741.914l-1.147-1.788c2.774-1.78,5.076-3.782,6.84-5.947
				l1.647,1.342C1311.983,737.861,1309.513,740.013,1306.549,741.914z M929.314,606.84c0.171-1.049,0.421-2.088,0.742-3.088
				c0.978-3.046,2.66-5.878,4.999-8.419l1.563,1.44c-2.128,2.312-3.655,4.879-4.539,7.63c-0.29,0.899-0.514,1.834-0.668,2.777
				L929.314,606.84z M1316.225,726.256c0.669-2.78,0.717-5.781,0.144-8.917l2.09-0.382c0.627,3.43,0.571,6.725-0.167,9.795
				L1316.225,726.256z M943.767,591.142l-1.081-1.83c2.553-1.507,5.492-2.879,8.735-4.078l0.737,1.993
				C949.035,588.383,946.211,589.7,943.767,591.142z M1313.428,708.693c-1.243-2.565-2.851-5.241-4.777-7.953l1.732-1.231
				c1.995,2.808,3.664,5.587,4.959,8.257L1313.428,708.693z M961.107,584.542l-0.499-2.065c2.925-0.706,6.081-1.326,9.381-1.839
				l0.328,2.1C967.074,583.242,963.975,583.85,961.107,584.542z M1302.8,693.445c-1.969-2.211-4.165-4.48-6.528-6.747l1.47-1.534
				c2.403,2.305,4.639,4.616,6.645,6.868L1302.8,693.445z M979.655,581.593l-0.196-2.116c3.034-0.281,6.233-0.493,9.509-0.634
				l0.091,2.123C985.818,581.105,982.654,581.316,979.655,581.593z M1289.28,680.397c-2.305-1.96-4.77-3.954-7.33-5.928l1.299-1.683
				c2.586,1.994,5.077,4.01,7.408,5.992L1289.28,680.397z M998.492,580.763l-0.004-2.125c3.071-0.006,6.272,0.044,9.513,0.15
				l-0.069,2.124C1004.715,580.807,1001.539,580.757,998.492,580.763z M1274.363,668.86c-2.492-1.769-5.113-3.563-7.793-5.332
				l1.171-1.773c2.699,1.782,5.34,3.59,7.852,5.373L1274.363,668.86z M1017.367,581.365l0.134-2.12
				c3.076,0.193,6.266,0.437,9.479,0.725l-0.19,2.117C1023.595,581.8,1020.424,581.558,1017.367,581.365z M1258.608,658.442
				c-2.607-1.614-5.332-3.25-8.101-4.864l1.071-1.836c2.784,1.624,5.525,3.27,8.149,4.893L1258.608,658.442z M1036.193,583.047
				l0.241-2.111c3.1,0.354,6.272,0.752,9.428,1.183l-0.287,2.106C1042.435,583.796,1039.277,583.399,1036.193,583.047z
				 M1242.285,648.914c-2.714-1.497-5.516-3.002-8.329-4.475l0.986-1.883c2.828,1.48,5.642,2.994,8.369,4.497L1242.285,648.914z
				 M1054.932,585.6l0.33-2.099c3.084,0.485,6.236,1.012,9.369,1.568l-0.371,2.093C1061.14,586.608,1058.001,586.083,1054.932,585.6
				z M1225.533,640.138c-2.785-1.387-5.647-2.778-8.506-4.135l0.912-1.92c2.87,1.363,5.745,2.76,8.541,4.153L1225.533,640.138z
				 M1073.558,588.895l0.407-2.086c3.055,0.598,6.185,1.239,9.304,1.905l-0.444,2.078
				C1079.718,590.129,1076.6,589.491,1073.558,588.895z M1208.446,632.024c-2.839-1.286-5.749-2.575-8.65-3.829l0.844-1.951
				c2.912,1.26,5.833,2.553,8.684,3.844L1208.446,632.024z M1092.059,592.846l0.478-2.07c3.062,0.707,6.169,1.45,9.234,2.21
				l-0.511,2.063C1098.206,594.291,1095.11,593.55,1092.059,592.846z M1191.083,624.512c-2.874-1.188-5.826-2.381-8.772-3.545
				l0.78-1.976c2.957,1.168,5.919,2.365,8.803,3.557L1191.083,624.512z M1110.427,597.394l0.543-2.055
				c3.022,0.798,6.104,1.637,9.16,2.494l-0.573,2.046C1116.51,599.025,1113.438,598.189,1110.427,597.394z M1173.484,617.56
				c-2.938-1.108-5.925-2.209-8.878-3.273l0.72-1.999c2.963,1.067,5.96,2.173,8.907,3.284L1173.484,617.56z M1128.648,602.499
				l0.603-2.037c3.011,0.892,6.067,1.821,9.081,2.761l-0.633,2.029C1134.694,604.314,1131.649,603.388,1128.648,602.499z
				 M1155.681,611.145c-2.973-1.022-5.99-2.035-8.97-3.011l0.663-2.019c2.988,0.98,6.016,1.996,8.998,3.021L1155.681,611.145z"/>
		</g>
		<g>
			<path style="fill:#6C79F6;" d="M1061.188,859.797c-3.135-1.081-6.073-2.818-8.734-5.163l1.46-1.655
				c2.442,2.154,5.131,3.746,7.992,4.732L1061.188,859.797z M1071.266,861.087l-0.146-2.201c2.931-0.195,6.032-0.897,9.217-2.086
				l0.771,2.067C1077.723,860.13,1074.412,860.877,1071.266,861.087z M1045.97,846.917c-1.672-2.612-3.207-5.609-4.562-8.908
				l2.04-0.838c1.305,3.176,2.779,6.055,4.38,8.556L1045.97,846.917z M1090.095,854.443l-1.142-1.887
				c2.582-1.565,5.25-3.435,7.933-5.559l1.369,1.729C1095.501,850.907,1092.756,852.83,1090.095,854.443z M1038.217,828.574
				c-0.832-3.019-1.573-6.276-2.203-9.681l2.17-0.401c0.617,3.343,1.344,6.538,2.16,9.495L1038.217,828.574z M1105.743,842.202
				l-1.519-1.6c2.25-2.136,4.551-4.479,6.838-6.966l1.623,1.494C1110.364,837.653,1108.028,840.032,1105.743,842.202z
				 M1034.552,809.091c-0.368-3.149-0.664-6.465-0.88-9.857l2.201-0.141c0.214,3.354,0.507,6.631,0.87,9.742L1034.552,809.091z
				 M1119.181,827.662l-1.701-1.404c2.007-2.433,4.045-5.021,6.056-7.692l1.763,1.328
				C1123.267,822.59,1121.209,825.203,1119.181,827.662z M1033.265,789.355c-0.064-3.199-0.067-6.524-0.008-9.881l2.205,0.038
				c-0.058,3.33-0.055,6.626,0.008,9.799L1033.265,789.355z M1131.088,811.886l-1.811-1.259c1.821-2.62,3.659-5.359,5.461-8.142
				l1.851,1.199C1134.774,806.488,1132.923,809.248,1131.088,811.886z M1033.592,769.605c0.159-3.211,0.373-6.525,0.635-9.852
				l2.199,0.173c-0.26,3.305-0.473,6.599-0.631,9.788L1033.592,769.605z M1141.831,795.318l-1.885-1.144
				c1.666-2.745,3.341-5.589,4.978-8.454l1.915,1.094C1145.193,789.696,1143.508,792.557,1141.831,795.318z M1035.134,749.925
				c0.339-3.224,0.727-6.52,1.151-9.799l2.188,0.284c-0.423,3.261-0.808,6.541-1.145,9.747L1035.134,749.925z M1151.629,778.189
				l-1.941-1.047c1.535-2.845,3.071-5.769,4.563-8.69l1.965,1.004C1154.715,772.391,1153.172,775.329,1151.629,778.189z
				 M1037.661,730.358c0.49-3.22,1.024-6.495,1.587-9.735l2.174,0.378c-0.561,3.224-1.092,6.484-1.58,9.688L1037.661,730.358z
				 M1160.611,760.626l-1.984-0.963c1.411-2.908,2.822-5.894,4.196-8.876l2.003,0.923
				C1163.447,754.705,1162.029,757.705,1160.611,760.626z M1041.033,710.925c0.619-3.192,1.282-6.443,1.969-9.662l2.158,0.461
				c-0.685,3.205-1.344,6.442-1.962,9.621L1041.033,710.925z M1168.867,742.716l-2.021-0.886c1.294-2.951,2.592-5.99,3.857-9.03
				l2.038,0.848C1171.469,736.7,1170.166,739.751,1168.867,742.716z M1045.149,691.641c0.742-3.193,1.523-6.417,2.319-9.583
				l2.139,0.538c-0.793,3.153-1.569,6.365-2.309,9.545L1045.149,691.641z M1176.451,724.514l-2.051-0.812
				c1.203-3.04,2.394-6.122,3.538-9.161l2.064,0.778C1178.854,718.369,1177.66,721.463,1176.451,724.514z M1049.951,672.517
				c0.854-3.173,1.744-6.368,2.642-9.497l2.12,0.609c-0.896,3.118-1.781,6.301-2.632,9.461L1049.951,672.517z M1183.399,706.063
				l-2.078-0.743c1.096-3.066,2.184-6.187,3.232-9.274l2.089,0.709C1185.591,699.854,1184.499,702.985,1183.399,706.063z
				 M1055.39,653.569c0.876-2.876,1.791-5.801,2.72-8.695l0.227-0.708l2.101,0.675l-0.227,0.707
				c-0.926,2.883-1.838,5.798-2.712,8.663L1055.39,653.569z M1189.735,687.395l-2.099-0.674l0.074-0.231
				c0.971-3.024,1.932-6.099,2.857-9.142l2.11,0.642c-0.927,3.053-1.893,6.14-2.867,9.175L1189.735,687.395z M1063.526,635.519
				l-2.088-0.71c1.047-3.08,2.141-6.211,3.251-9.306l2.077,0.745C1065.66,629.331,1064.57,632.451,1063.526,635.519z
				 M1193.345,667.929c0.904-3.157,1.787-6.341,2.625-9.464l2.131,0.571c-0.841,3.135-1.728,6.331-2.634,9.5L1193.345,667.929z
				 M1070.158,617.031l-2.064-0.779c1.145-3.032,2.342-6.125,3.559-9.193l2.051,0.813
				C1072.492,610.929,1071.298,614.011,1070.158,617.031z M1198.434,648.958c0.791-3.155,1.564-6.367,2.3-9.546l2.15,0.498
				c-0.739,3.192-1.516,6.417-2.31,9.585L1198.434,648.958z M1077.408,598.778l-2.035-0.85c1.281-3.067,2.587-6.116,3.882-9.063
				l2.019,0.887C1079.985,592.686,1078.684,595.723,1077.408,598.778z M1202.863,629.825c0.683-3.208,1.339-6.445,1.954-9.623
				l2.165,0.419c-0.616,3.191-1.275,6.442-1.96,9.663L1202.863,629.825z M1085.306,580.798l-2.003-0.925
				c1.391-3.01,2.812-6.008,4.224-8.912l1.984,0.965C1088.105,574.816,1086.691,577.802,1085.306,580.798z M1206.583,610.545
				c0.561-3.256,1.088-6.516,1.569-9.691l2.182,0.33c-0.482,3.19-1.012,6.466-1.577,9.736L1206.583,610.545z M1093.896,563.143
				l-1.964-1.007c1.524-2.973,3.071-5.91,4.598-8.728l1.94,1.05C1096.952,557.263,1095.412,560.184,1093.896,563.143z
				 M1209.51,591.132c0.419-3.262,0.8-6.541,1.134-9.747l2.194,0.228c-0.334,3.224-0.718,6.521-1.139,9.801L1209.51,591.132z
				 M1103.244,545.885l-1.914-1.097c1.656-2.889,3.345-5.748,5.019-8.498l1.884,1.147
				C1106.569,540.17,1104.89,543.012,1103.244,545.885z M1211.533,571.615c0.255-3.307,0.464-6.601,0.616-9.789l2.204,0.106
				c-0.154,3.209-0.363,6.525-0.62,9.854L1211.533,571.615z M1113.454,529.136l-1.85-1.203c1.827-2.811,3.682-5.567,5.516-8.192
				l1.808,1.262C1117.11,523.609,1115.268,526.345,1113.454,529.136z M1212.465,552.028c0.052-3.337,0.044-6.634-0.026-9.798
				l2.205-0.049c0.071,3.193,0.08,6.517,0.028,9.882L1212.465,552.028z M1124.685,513.075l-1.76-1.331
				c2.041-2.699,4.105-5.308,6.136-7.756l1.698,1.408C1128.749,507.819,1126.706,510.402,1124.685,513.075z M1212.015,532.449
				c-0.224-3.366-0.525-6.642-0.898-9.74l2.191-0.263c0.376,3.135,0.682,6.451,0.908,9.856L1212.015,532.449z M1137.196,498.037
				l-1.62-1.499c2.327-2.513,4.67-4.885,6.968-7.048l1.513,1.606C1141.796,493.225,1139.487,495.561,1137.196,498.037z
				 M1209.645,513.058c-0.629-3.337-1.37-6.528-2.202-9.483l2.125-0.598c0.848,3.017,1.603,6.272,2.245,9.673L1209.645,513.058z
				 M1151.423,484.735l-1.361-1.737c2.768-2.169,5.526-4.075,8.198-5.665l1.129,1.896
				C1156.797,480.772,1154.116,482.624,1151.423,484.735z M1204.284,494.413c-1.329-3.167-2.828-6.03-4.456-8.51l1.844-1.211
				c1.703,2.593,3.266,5.576,4.647,8.868L1204.284,494.413z M1168.037,475.07l-0.747-2.076c3.401-1.223,6.724-1.92,9.879-2.073
				l0.106,2.204C1174.34,473.267,1171.232,473.921,1168.037,475.07z M1193.643,478.746c-2.47-2.103-5.189-3.64-8.08-4.569l0.674-2.1
				c3.17,1.018,6.143,2.697,8.836,4.99L1193.643,478.746z"/>
		</g>
		<g>
			<path style="fill:#6C79F6;" d="M1316.628,728.656l-0.821-0.264l0.447-1.393l0.821,0.264L1316.628,728.656z M1309.597,726.398
				l-6.209-1.994l0.447-1.393l6.209,1.994L1309.597,726.398z M1297.179,722.411l-6.209-1.994l0.447-1.393l6.209,1.994
				L1297.179,722.411z M1284.761,718.423l-6.209-1.994l0.447-1.392l6.209,1.994L1284.761,718.423z M1272.342,714.435l-6.208-1.994
				l0.447-1.393l6.208,1.994L1272.342,714.435z M1259.924,710.448l-6.209-1.994l0.447-1.393l6.209,1.994L1259.924,710.448z
				 M1247.506,706.46l-6.209-1.994l0.447-1.393l6.209,1.994L1247.506,706.46z M1235.088,702.473l-6.209-1.994l0.447-1.392
				l6.209,1.994L1235.088,702.473z M1222.67,698.485l-6.208-1.994l0.447-1.393l6.209,1.994L1222.67,698.485z M1210.252,694.497
				l-6.209-1.994l0.447-1.393l6.208,1.994L1210.252,694.497z M1197.834,690.51l-6.209-1.994l0.447-1.393l6.209,1.994
				L1197.834,690.51z M1185.416,686.522l-6.209-1.994l0.447-1.393l6.21,1.994L1185.416,686.522z M1172.998,682.534l-6.21-1.994
				l0.447-1.392l6.209,1.994L1172.998,682.534z M1160.579,678.546l-6.209-1.994l0.447-1.393l6.208,1.994L1160.579,678.546z
				 M1148.161,674.559l-6.208-1.994l0.447-1.393l6.208,1.994L1148.161,674.559z M1135.743,670.571l-6.209-1.994l0.447-1.393
				l6.209,1.994L1135.743,670.571z M1123.325,666.584l-6.209-1.994l0.447-1.393l6.209,1.994L1123.325,666.584z M1110.907,662.596
				l-6.209-1.994l0.447-1.393l6.209,1.994L1110.907,662.596z M1098.489,658.608l-6.208-1.994l0.447-1.393l6.208,1.994
				L1098.489,658.608z M1086.071,654.62l-6.209-1.994l0.447-1.393l6.209,1.994L1086.071,654.62z M1073.653,650.633l-6.209-1.994
				l0.447-1.393l6.209,1.994L1073.653,650.633z M1061.235,646.645l-6.209-1.994l0.447-1.393l6.209,1.994L1061.235,646.645z
				 M1048.816,642.657l-6.208-1.994l0.447-1.393l6.208,1.994L1048.816,642.657z M1036.398,638.67l-6.208-1.994l0.447-1.393
				l6.208,1.994L1036.398,638.67z M1023.98,634.682l-6.209-1.994l0.447-1.393l6.209,1.994L1023.98,634.682z M1011.562,630.695
				l-6.209-1.994l0.447-1.393l6.209,1.994L1011.562,630.695z M999.144,626.707l-6.209-1.994l0.447-1.393l6.209,1.994
				L999.144,626.707z M986.725,622.719l-6.208-1.994l0.447-1.393l6.208,1.994L986.725,622.719z M974.307,618.732l-6.209-1.994
				l0.447-1.392l6.208,1.994L974.307,618.732z M961.889,614.744l-6.209-1.994l0.447-1.393l6.209,1.994L961.889,614.744z
				 M949.472,610.756l-6.209-1.994l0.447-1.393l6.209,1.994L949.472,610.756z M937.054,606.768l-6.209-1.994l0.447-1.393l6.21,1.994
				L937.054,606.768z"/>
		</g>
		<g>
			<path style="fill:#6C79F6;" d="M1062.715,859.135l-1.393-0.448l0.264-0.823l1.394,0.448L1062.715,859.135z M1064.973,852.103
				l-1.393-0.447l1.994-6.209l1.393,0.448L1064.973,852.103z M1068.961,839.685l-1.393-0.447l1.994-6.209l1.393,0.448
				L1068.961,839.685z M1072.949,827.267l-1.394-0.447l1.994-6.209l1.393,0.447L1072.949,827.267z M1076.936,814.849l-1.393-0.448
				l1.994-6.209l1.393,0.447L1076.936,814.849z M1080.924,802.43l-1.393-0.447l1.994-6.209l1.393,0.447L1080.924,802.43z
				 M1084.912,790.013l-1.393-0.448l1.994-6.209l1.393,0.447L1084.912,790.013z M1088.899,777.595l-1.394-0.448l1.994-6.209
				l1.394,0.447L1088.899,777.595z M1092.887,765.176l-1.393-0.448l1.994-6.209l1.393,0.447L1092.887,765.176z M1096.875,752.758
				l-1.393-0.448l1.994-6.209l1.394,0.448L1096.875,752.758z M1100.862,740.34l-1.394-0.447l1.994-6.209l1.393,0.447
				L1100.862,740.34z M1104.85,727.922l-1.393-0.448l1.994-6.209l1.393,0.448L1104.85,727.922z M1108.838,715.504l-1.393-0.447
				l1.994-6.209l1.394,0.448L1108.838,715.504z M1112.825,703.086l-1.393-0.447l1.994-6.209l1.393,0.448L1112.825,703.086z
				 M1116.813,690.667l-1.394-0.447l1.994-6.209l1.393,0.448L1116.813,690.667z M1120.801,678.25l-1.393-0.447l1.994-6.209
				l1.393,0.447L1120.801,678.25z M1124.788,665.831l-1.394-0.447l1.994-6.209l1.394,0.448L1124.788,665.831z M1128.776,653.413
				l-1.394-0.447l1.994-6.209l1.393,0.447L1128.776,653.413z M1132.764,640.995l-1.393-0.448l1.994-6.209l1.393,0.448
				L1132.764,640.995z M1136.751,628.577l-1.394-0.448l1.994-6.209l1.394,0.447L1136.751,628.577z M1140.739,616.159l-1.393-0.448
				l1.994-6.209l1.393,0.448L1140.739,616.159z M1144.727,603.741l-1.394-0.448l1.994-6.209l1.393,0.447L1144.727,603.741z
				 M1148.714,591.323l-1.393-0.447l1.994-6.209l1.393,0.447L1148.714,591.323z M1152.702,578.904l-1.393-0.448l1.994-6.209
				l1.394,0.447L1152.702,578.904z M1156.69,566.487l-1.394-0.447l1.994-6.209l1.393,0.447L1156.69,566.487z M1160.677,554.069
				l-1.393-0.447l1.994-6.21l1.393,0.447L1160.677,554.069z M1164.665,541.65l-1.394-0.448l1.994-6.209l1.393,0.447L1164.665,541.65
				z M1168.653,529.232l-1.393-0.447l1.994-6.209l1.393,0.447L1168.653,529.232z M1172.641,516.814l-1.394-0.448l1.994-6.209
				l1.393,0.447L1172.641,516.814z M1176.628,504.396l-1.394-0.447l1.994-6.209l1.393,0.448L1176.628,504.396z M1180.616,491.978
				l-1.394-0.447l1.994-6.21l1.394,0.448L1180.616,491.978z M1184.603,479.56l-1.393-0.447l1.994-6.209l1.393,0.448L1184.603,479.56
				z"/>
		</g>
	</g>
</g>
</svg>
