<?xml version="1.0" encoding="utf-8"?>
<!-- Generator: Adobe Illustrator 27.5.0, SVG Export Plug-In . SVG Version: 6.00 Build 0)  -->
<svg version="1.1" id="Capa_1" xmlns="http://www.w3.org/2000/svg" xmlns:xlink="http://www.w3.org/1999/xlink" x="0px" y="0px"
	 viewBox="0 0 2122 2122" style="enable-background:new 0 0 2122 2122;" xml:space="preserve">
<path style="fill:#7C7676;" d="M645.536,1875.794c-0.375-0.051-0.755-0.095-1.129-0.146c-9.386-11.245-19.594-26.139-30.005-43.085
	l-0.007-0.012c-7.369-1.354-14.624-2.765-21.708-4.253c-1.519-0.319-3.117-0.781-4.75-1.307c-0.311-0.1-0.614-0.188-0.927-0.295
	c-0.203-0.069-0.407-0.139-0.61-0.212c-1.48-0.523-2.997-1.114-4.558-1.791c-0.284-0.123-0.579-0.267-0.864-0.395
	c-0.051-0.023-0.105-0.048-0.156-0.071c-0.399-0.179-0.801-0.363-1.205-0.552c-1.075-0.502-2.168-1.04-3.277-1.607
	c-0.451-0.23-0.897-0.452-1.352-0.693c-0.411-0.217-0.821-0.435-1.235-0.66c-0.419-0.228-0.848-0.478-1.272-0.714
	c-0.94-0.526-1.883-1.055-2.844-1.623c-0.561-0.331-1.135-0.687-1.704-1.032c-0.454-0.276-0.902-0.54-1.361-0.825
	c-0.402-0.25-0.806-0.504-1.212-0.76c-0.586-0.371-1.182-0.764-1.775-1.148c-0.608-0.394-1.206-0.77-1.82-1.177
	c-0.742-0.492-1.498-1.021-2.248-1.534c-0.649-0.443-1.294-0.876-1.95-1.335c-0.376-0.263-0.756-0.535-1.135-0.804
	c-0.894-0.633-1.797-1.285-2.702-1.944c-0.728-0.53-1.458-1.067-2.193-1.613c-0.742-0.551-1.482-1.102-2.231-1.669
	c-1.299-0.986-2.614-2.015-3.932-3.048c-0.774-0.606-1.541-1.199-2.319-1.821c-0.536-0.428-1.067-0.846-1.607-1.281
	c-0.9-0.728-1.809-1.482-2.716-2.23c-0.59-0.485-1.184-0.988-1.776-1.482c-0.701-0.584-1.398-1.16-2.103-1.756
	c-0.485-0.41-0.961-0.793-1.447-1.208c-1.325-1.13-2.665-2.317-4.001-3.485c-0.43-0.376-0.859-0.75-1.29-1.129
	c-3.841-3.382-7.712-6.88-11.612-10.533c-0.563-0.526-1.127-1.074-1.691-1.605c-2.271-2.145-4.546-4.317-6.827-6.538
	c-0.725-0.706-1.448-1.427-2.172-2.14c-2.136-2.101-4.271-4.222-6.406-6.38c-0.766-0.776-1.531-1.559-2.297-2.341
	c-2.114-2.159-4.224-4.337-6.33-6.544c-0.738-0.773-1.474-1.548-2.211-2.327c-2.162-2.284-4.31-4.587-6.454-6.911
	c-0.662-0.717-1.323-1.431-1.982-2.151c-2.265-2.476-4.513-4.969-6.749-7.478c-0.515-0.578-1.033-1.152-1.547-1.732
	c-2.542-2.87-5.058-5.754-7.549-8.652c-0.151-0.176-0.307-0.348-0.457-0.524c0.001,0,0.003,0,0.004,0
	c-35.398-41.262-64.952-84.591-72.233-110.477c-13.215-46.983-13.056-527.893-6.494-727.237h0.036
	c0.588-22.051,44.591-42.503,119.361-59.39c-0.001-0.004-0.001-0.008-0.003-0.013c-1.923-9.41-1.556-20.856,0.618-35.208
	c7.234-47.732,40.403-90.599,70.035-110.026c-33.318,0.543-58.297,1.459-71.906,2.596c-51.723,4.324-115.525,63.406-153.06,103.246
	c0.159-1.619,0.323-3.095,0.486-4.426c-10.563,85.354-15.11,792.437,1.529,851.596c17.416,61.943,155.214,218.228,212.922,230.344
	c25.262,5.305,52.378,9.78,80.42,13.561C645.543,1875.804,645.54,1875.798,645.536,1875.794z"/>
<path style="fill:#7C7676;" d="M1060.66,1859.377c0,0-51.079,1.31-123.85-0.089c0,0,0,0,0,0c2.691,12.224,5.419,24.033,8.421,36.03
	c-0.441-0.007-0.903-0.016-1.346-0.022c0.001,0.002,0.003,0.002,0.003,0.004c14.939,0.229,28.905,0.358,41.555,0.41
	c34.01-11.232,84.225-23.838,134.006-35.777C1083.114,1859.953,1060.66,1859.377,1060.66,1859.377z"/>
<path style="fill:#7C7676;" d="M909.055,781.203L909.055,781.203c6.939-0.249,13.932-0.475,20.951-0.691
	c1.673-0.051,3.352-0.101,5.029-0.15c7.115-0.21,14.257-0.407,21.448-0.581c0.441-0.011,0.877-0.023,1.317-0.034
	c7.529-0.181,15.108-0.336,22.715-0.478c1.821-0.034,3.643-0.066,5.468-0.097c7.416-0.129,14.856-0.244,22.343-0.335
	c0.26-0.004,0.519-0.008,0.779-0.01c7.064-0.085,14.168-0.147,21.292-0.197c0.705-0.005,1.413-0.009,2.118-0.013
	c1.827-0.013,3.656-0.023,5.487-0.032c7.8-0.041,15.622-0.07,23.487-0.07c23.347,0,46.418,0.185,69.156,0.545
	c17.054,0.27,33.919,0.639,50.575,1.103c5.552,0.155,11.08,0.32,16.583,0.495c16.511,0.527,32.804,1.148,48.854,1.858
	c10.699,0.474,21.291,0.988,31.767,1.541c72.806,3.841,140.042,9.565,199.351,16.796c-33.557-39.969-89.077-74.002-180.966-87.424
	c-167.26-24.431-417.523-33.362-594.585-34.845c78.605,10.879,173.578,26.135,173.578,26.135
	C907.363,709.667,914.689,744.578,909.055,781.203z"/>
<path style="fill:#686363;" d="M351.171,776.77c-0.152,0.945-0.304,2.046-0.454,3.246c-0.014,0.106-0.026,0.184-0.04,0.291
	c-0.163,1.331-0.327,2.807-0.486,4.426c37.535-39.84,101.337-98.922,153.06-103.246c13.609-1.137,38.588-2.053,71.906-2.596
	c0-0.001,0.001-0.001,0.001-0.002c10.023-6.571,19.642-10.461,27.715-10.95c0.779-0.047,1.678-0.07,2.702-0.07
	c14.564,0,53.083,4.682,96.628,10.709c0.008,0,0.015,0.002,0.022,0.003c177.062,1.484,427.325,10.414,594.585,34.845
	c91.889,13.422,147.409,47.455,180.966,87.424c91.569,11.164,164.19,25.927,209.174,42.925
	c-1.881-40.268-7.398-74.506-24.296-86.795c-31.939-23.229-75.492,31.939-112.173,25.975c-36.682-5.961-33.002-5.651-50.424-31.784
	c-17.422-26.132,69.684-14.517,46.456-40.649c-23.164-26.06-213.826-50.399-214.886-50.534c-80.354,5.06-173.117,7.95-271.937,7.95
	c-292.372,0-531.888-25.273-553.037-57.326c-58.065,37.2-143.115,137.298-154.449,161.853c-0.177,0.381-0.352,0.947-0.525,1.674
	c-0.116,0.479-0.228,1.129-0.341,1.754C351.284,776.201,351.227,776.429,351.171,776.77z"/>
<path style="fill:#686363;" d="M1119.45,1859.934c-49.781,11.94-99.998,24.546-134.007,35.778c46.017,0.19,75.217-0.56,75.217-0.56
	s97.178,2.486,216.608-2.779c15.47-12.138,46.576-26.4,82.699-41.449C1267.643,1858.406,1176.458,1859.903,1119.45,1859.934z"/>
<path style="fill:#3F221B;" d="M523.652,1645.453c-12.948-37.331-30.413-134.535-43.265-229.991
	c-0.005-0.031-0.009-0.063-0.012-0.094c-32.25-24.359-49.991-53.193-52.091-101.497c-2.909-66.781-19.301-226.475,15.541-278.738
	c11.793-17.689,18.375-30.537,28.576-38.028c0.001-0.01,0.003-0.022,0.004-0.033c2.742-26.144,5.86-47.015,9.079-58.808
	c0.001-0.003,0.001-0.005,0.003-0.008c-61.171-15.857-96.376-34.426-96.376-54.279c0-0.149,0.033-0.297,0.036-0.447h-0.036
	c-6.562,199.344-6.721,680.254,6.494,727.237c7.28,25.886,36.835,69.215,72.233,110.477c25.381,1.284,57.517,2.861,93.833,4.54
	C542.552,1693.706,530.21,1664.358,523.652,1645.453z"/>
<path style="fill:#3F221B;" d="M845.858,1032.427c120.489,3.193,239.611,0.673,277.196,5.609c0,0,60.522,31.939,72.137,133.562
	c8.904,77.94,35.373,150.827-36.032,220.592c-34.309,33.522-168.938,53.553-306.013,61.873c0,0.002,0,0.004,0,0.006
	c2.848,42.315,7.216,78.578,13.946,104.278c20.232,77.247,33.785,134.428,43.892,179.818c97.134,1.729,176.209,0.8,200.005-5.606
	c0,0,156.785-55.167,185.82-156.79c24.192-84.672,8.073-467.6,2.022-593.012c-73.855,4.316-153.821,6.682-237.342,6.682
	c-76.391,0-149.818-1.977-218.309-5.617c0,0.001,0,0.002,0,0.003C844.369,997.915,845.231,1014.299,845.858,1032.427z"/>
<path style="fill:#331915;" d="M1298.833,982.756c6.051,125.412,22.17,508.34-2.022,593.012
	c-29.035,101.624-185.82,156.79-185.82,156.79c-23.796,6.406-102.871,7.335-200.005,5.606c0,0,0,0,0,0.001
	c5.329,23.931,9.699,44.586,13.586,63.18c178.158,5.023,350.082,5.898,383.854-4.91c72.588-23.228,197.439-121.948,240.992-194.536
	c35.138-58.559,31.531-486.625,28.826-649.885C1504.173,965.678,1408.236,976.362,1298.833,982.756z"/>
<path style="fill:#331915;" d="M588.617,1787.406c-10.914-20.355-21.474-41.521-30.948-61.622l0,0
	c-36.317-1.679-68.452-3.256-93.833-4.54c-0.001,0-0.003,0-0.004,0c0.15,0.176,0.306,0.348,0.457,0.524
	c2.49,2.897,5.008,5.783,7.549,8.652c0.514,0.58,1.032,1.153,1.547,1.732c2.236,2.508,4.485,5.003,6.749,7.478
	c0.659,0.72,1.32,1.434,1.982,2.151c2.142,2.323,4.294,4.628,6.454,6.911c0.737,0.779,1.472,1.554,2.211,2.327
	c2.105,2.206,4.217,4.385,6.33,6.544c0.766,0.782,1.531,1.566,2.297,2.341c2.135,2.158,4.271,4.28,6.406,6.38
	c0.723,0.713,1.447,1.434,2.172,2.14c2.28,2.222,4.556,4.393,6.827,6.538c0.564,0.531,1.128,1.079,1.691,1.605
	c2.426,2.272,4.822,4.404,7.224,6.563C540.821,1784.462,562.857,1785.91,588.617,1787.406z"/>
<path style="fill:#1E0F0E;" d="M588.617,1787.406c-25.796-1.498-47.86-2.948-64.965-4.282c1.2,1.083,2.392,2.138,3.585,3.194
	c0.292,0.259,0.587,0.525,0.88,0.782c0.431,0.38,0.86,0.753,1.29,1.129c0.557,0.486,1.109,0.959,1.663,1.439
	c1.593,1.38,3.179,2.733,4.755,4.058c0.379,0.318,0.758,0.638,1.134,0.952c0.592,0.494,1.186,0.996,1.776,1.482
	c0.45,0.37,0.893,0.723,1.341,1.089c0.996,0.814,1.994,1.633,2.982,2.422c0.778,0.622,1.546,1.215,2.319,1.821
	c1.203,0.945,2.402,1.877,3.591,2.782c0.862,0.656,1.72,1.301,2.572,1.935c0.734,0.547,1.464,1.083,2.193,1.613
	c0.905,0.659,1.807,1.311,2.702,1.944c0.379,0.268,0.759,0.54,1.135,0.804c0.656,0.459,1.301,0.891,1.95,1.335
	c0.75,0.513,1.507,1.042,2.248,1.534c0.614,0.409,1.212,0.783,1.82,1.177c0.592,0.384,1.189,0.777,1.775,1.148
	c0.406,0.257,0.81,0.51,1.212,0.76c0.459,0.284,0.907,0.549,1.361,0.825c0.57,0.345,1.142,0.7,1.704,1.032
	c0.961,0.567,1.904,1.097,2.844,1.623c0.424,0.236,0.853,0.486,1.272,0.714c0.414,0.225,0.824,0.443,1.235,0.66
	c0.455,0.241,0.902,0.462,1.352,0.693c1.108,0.567,2.202,1.105,3.277,1.607c0.404,0.189,0.806,0.372,1.205,0.552
	c0.051,0.023,0.105,0.048,0.156,0.071c0.285,0.127,0.58,0.272,0.864,0.395c1.561,0.677,3.078,1.268,4.558,1.791
	c0.284,0.1,0.556,0.181,0.837,0.275c0.234,0.079,0.467,0.156,0.701,0.231c1.633,0.526,3.231,0.988,4.75,1.307
	c7.084,1.488,14.339,2.899,21.708,4.253C605.822,1818.597,597.112,1803.249,588.617,1787.406L588.617,1787.406z"/>
<path style="fill:#1E0F0E;" d="M1737.662,886.555c-0.045,0.295-0.131,0.589-0.192,0.883c-0.026,0.129-0.055,0.257-0.084,0.385
	c-0.045,0.194-0.076,0.39-0.127,0.584c-0.062,0.236-0.126,0.473-0.199,0.709c-0.11,0.354-0.252,0.707-0.384,1.06
	c-0.184,0.495-0.374,0.989-0.603,1.482c-0.094,0.204-0.175,0.408-0.276,0.611c-0.072,0.142-0.168,0.284-0.242,0.426
	c-0.019,0.035-0.041,0.069-0.059,0.104c-0.245,0.459-0.501,0.917-0.783,1.374c-0.247,0.403-0.51,0.804-0.787,1.205
	c-0.207,0.301-0.412,0.602-0.636,0.903c-0.134,0.179-0.277,0.356-0.417,0.535c-0.288,0.369-0.583,0.738-0.896,1.106
	c-0.329,0.388-0.686,0.775-1.043,1.162c-0.405,0.439-0.802,0.879-1.24,1.316c-0.119,0.119-0.237,0.239-0.359,0.357
	c-0.223,0.216-0.477,0.432-0.709,0.648c-0.543,0.509-1.078,1.019-1.668,1.526c-0.126,0.108-0.268,0.215-0.396,0.323
	c-0.38,0.32-0.781,0.64-1.179,0.959c-0.253,0.204-0.49,0.408-0.75,0.61c-1.521,1.184-3.177,2.36-4.951,3.529
	c-0.328,0.216-0.676,0.431-1.012,0.647c-0.416,0.266-0.821,0.533-1.25,0.798c-0.005,0.003-0.008,0.005-0.012,0.008
	c-1.15,0.712-2.357,1.42-3.598,2.126c-0.095,0.054-0.187,0.108-0.283,0.162c-0.117,0.066-0.226,0.132-0.343,0.198
	c-0.184,0.103-0.353,0.207-0.538,0.31c-0.97,0.538-1.998,1.071-3.021,1.605c-0.068,0.036-0.137,0.072-0.206,0.108
	c-1.151,0.598-2.329,1.195-3.546,1.789c-0.417,0.203-0.844,0.406-1.269,0.609c-4.917,2.351-10.347,4.664-16.274,6.938
	c-0.421,0.162-0.842,0.322-1.267,0.483c-6.135,2.321-12.788,4.601-19.933,6.835c-0.321,0.101-0.638,0.201-0.962,0.302
	c-7.469,2.317-15.464,4.585-23.971,6.801c-0.031,0.008-0.061,0.016-0.091,0.024c-18.883,4.915-40.265,9.568-63.863,13.92
	c2.705,163.26,6.312,591.325-28.826,649.885c-43.553,72.588-168.404,171.308-240.992,194.536
	c-33.771,10.807-205.695,9.932-383.854,4.91c0.002,0,0.002,0.002,0.002,0.003c4.48,21.434,8.317,40.123,12.238,57.941
	c72.771,1.398,123.85,0.089,123.85,0.089s22.454,0.576,58.791,0.556c57.007-0.031,148.192-1.528,240.516-9.01
	c58.58-4.748,117.615-11.902,168.666-22.625c54.497-11.442,184.633-159.036,201.085-217.532
	c13.211-46.983,14.665-526.296,8.1-725.644h-0.028C1737.756,885.6,1737.737,886.078,1737.662,886.555z"/>
<path style="fill:#958F90;" d="M1072.458,565.493c-4.244,0.024-8.486,0.05-12.766,0.05c-27.073,0-53.665-0.333-79.739-0.936
	c5.615-8.889,11.023-21.135,11.023-33.133c0-20.326,23.229-72.539-10.646-84.179c-17.368-5.967-11.082-19.483-0.05-32.322
	c-279.319-6.411-494.417-46.142-494.512-94.211v149.628c0,8.496,6.754,16.729,19.354,24.567v43.414
	c54.005,17.432,224.468,61.152,550.165,50.408c0.185-0.129,12.58-8.818,16.576-23.261c0.2-0.001,0.396-0.003,0.595-0.004V565.493z"
	/>
<path style="fill:#958F90;" d="M1058.149,641.715c7.348-9.587,12.786-23.059,2.51-33.781c-0.676-0.706-1.226-1.335-1.818-1.99
	c-183.698,6.184-390-1.786-553.719-49.265v34.083C564.966,605.536,761.282,647.076,1058.149,641.715z"/>
<path style="fill:#686363;" d="M1058.149,641.715c136.697-2.469,294.694-14.873,470.538-44.429c0,0,17.826-31.547-11.209-31.741
	c-9.262-0.059-79.284,10.531-182.576,21.121c-77.235,7.919-173.112,15.812-276.061,19.278c0.592,0.654,1.142,1.284,1.818,1.99
	C1070.935,618.656,1065.498,632.128,1058.149,641.715z"/>
<path style="fill:#605A5B;" d="M1773.164,814.079c-0.155-2.956-0.31-5.774-0.469-8.449c-0.316-5.349-0.642-10.124-0.972-14.281
	c-0.166-2.078-0.334-4.002-0.503-5.765c-0.338-3.527-0.682-6.414-1.033-8.615c-0.352-2.201-0.708-3.717-1.072-4.504
	c-0.572-1.24-1.385-2.725-2.32-4.333c-6.777-11.645-22.686-32.416-42.903-55.635c-1.768-2.033-3.571-4.083-5.403-6.148
	c-3.664-4.13-7.444-8.315-11.315-12.519c-3.771-4.094-7.63-8.207-11.548-12.304c-4.128-4.315-8.322-8.615-12.557-12.856
	c-0.021-0.021-0.041-0.041-0.062-0.061c-5.937-5.943-11.951-11.768-17.964-17.379c-0.617-0.575-1.232-1.143-1.849-1.714
	c-12.167-11.263-24.3-21.593-35.743-30.067c-0.238-0.175-0.467-0.332-0.703-0.505c-3.104-2.284-6.148-4.409-9.135-6.4
	c-1.476-0.984-2.932-1.919-4.375-2.825c0.654-1.232,1.025-2.472,1.025-3.722V494.959c-0.306,0.19-0.618,0.38-0.931,0.57
	c-0.223,0.135-0.436,0.271-0.662,0.406c-0.281,0.168-0.537,0.337-0.823,0.504c-1.555,0.907-3.212,1.807-4.922,2.702
	c-0.166,0.086-0.34,0.173-0.507,0.259c-2.026,1.05-4.152,2.092-6.389,3.126c-0.09,0.041-0.176,0.083-0.267,0.125
	c-2.368,1.09-4.86,2.17-7.459,3.241c-0.093,0.038-0.189,0.076-0.283,0.114c-4.651,1.909-9.632,3.791-14.996,5.637
	c-14.105,4.853-30.621,9.478-49.291,13.83c-8.173,1.905-16.765,3.758-25.742,5.555c7.918,8.115-1.933,16.897-1.933,16.897
	c-172.512,24.644-320.012,36.739-444.771,40.854c-325.696,10.745-496.16-32.976-550.165-50.408v18.306
	c163.718,47.479,370.021,55.449,553.719,49.265c102.949-3.466,198.826-11.359,276.061-19.278
	c103.292-10.59,173.314-21.18,182.576-21.121c29.035,0.194,11.209,31.741,11.209,31.741
	c-175.844,29.556-333.841,41.96-470.538,44.429c-296.867,5.361-493.183-36.179-553.027-50.952v15.234
	c0,1.553,0.527,3.092,1.532,4.617c21.149,32.053,260.665,57.326,553.037,57.326c98.82,0,191.582-2.89,271.937-7.95
	c1.06,0.135,191.722,24.475,214.886,50.534c23.228,26.132-63.878,14.517-46.456,40.649c17.421,26.132,13.742,25.823,50.424,31.784
	c36.681,5.963,80.234-49.205,112.173-25.975c16.898,12.288,22.415,46.527,24.296,86.795c13.924,5.261,25.239,10.734,33.602,16.383
	c1.259,0.851,2.452,1.705,3.578,2.563c2.252,1.716,4.237,3.448,5.948,5.193c5.133,5.237,7.794,10.601,7.794,16.061l0,0v0
	c0,0.002,0,0.003,0,0.005c0,0.382-0.057,0.76-0.083,1.141h0.028c6.565,199.349,5.111,678.661-8.1,725.644
	c-16.452,58.496-146.588,206.09-201.085,217.532c-51.051,10.722-110.087,17.877-168.666,22.625
	c-36.124,15.049-67.23,29.312-82.7,41.45c34.046-1.5,69.899-3.631,105.824-6.627c0.207-0.017,0.413-0.034,0.62-0.051
	c5.727-0.479,11.454-0.982,17.177-1.507c0.166-0.015,0.331-0.028,0.497-0.043c0.082-0.007,0.162-0.015,0.243-0.022
	c0.192-0.018,0.383-0.037,0.575-0.055c5.729-0.528,11.453-1.078,17.164-1.654c0.125-0.012,0.251-0.026,0.378-0.039
	c5.821-0.588,11.628-1.201,17.415-1.841c0.102-0.011,0.205-0.022,0.307-0.034c5.484-0.607,10.944-1.243,16.384-1.898
	c0.129-0.016,0.259-0.029,0.39-0.045c0.527-0.064,1.054-0.127,1.581-0.191c0.096-0.012,0.191-0.025,0.288-0.036
	c5.245-0.639,10.464-1.301,15.654-1.986c0.068-0.009,0.139-0.017,0.207-0.026c0.606-0.079,1.206-0.162,1.81-0.242
	c0.093-0.012,0.182-0.026,0.273-0.038c5.323-0.712,10.621-1.443,15.872-2.205c0.043-0.006,0.084-0.011,0.126-0.018
	c0.039-0.005,0.076-0.011,0.114-0.017c0.118-0.017,0.232-0.036,0.351-0.053c5.19-0.756,10.336-1.541,15.445-2.348
	c0.073-0.011,0.149-0.022,0.222-0.034c0.47-0.074,0.943-0.146,1.41-0.221c0.033-0.005,0.064-0.01,0.096-0.015
	c4.99-0.796,9.929-1.622,14.827-2.47c0.036-0.006,0.072-0.012,0.107-0.018c0.792-0.137,1.582-0.274,2.37-0.413
	c0.029-0.005,0.056-0.01,0.084-0.015c4.843-0.85,9.641-1.723,14.38-2.625c0.007-0.001,0.016-0.003,0.023-0.005
	c0.683-0.13,1.359-0.263,2.04-0.395c0.009-0.002,0.019-0.004,0.027-0.005c4.938-0.951,9.832-1.924,14.643-2.935
	c34.265-7.193,96.763-65.212,145.534-124.132c33.37-40.313,60.314-81.048,67.391-106.213c1.25-4.443,2.375-12.647,3.394-23.861
	C1783.897,1482.451,1781.108,966.043,1773.164,814.079z"/>
<path style="fill:#7C7676;" d="M1560.112,367.344c-98.385,28.97-285.602,48.541-500.421,48.541c-26.95,0-53.451-0.315-79.411-0.911
	c-11.032,12.839-17.318,26.355,0.05,32.322c33.875,11.639,10.646,63.853,10.646,84.179c0,11.998-5.408,24.244-11.023,33.133
	c26.074,0.602,52.666,0.936,79.739,0.936c74.402,0,145.376-2.387,210.614-6.66c0.092-6.132,3.885-13.036,16.828-18.698
	c30.971-13.549,234.217-23.229,265.187-63.877C1577.948,442.671,1571.81,393.402,1560.112,367.344z"/>
<path style="fill:#AAA3A3;" d="M1059.691,225.577c-316.97,0-573.926,42.602-573.926,95.154c0,0.011,0.003,0.021,0.003,0.032
	c0.095,48.069,215.193,87.8,494.512,94.211c25.96,0.596,52.462,0.911,79.411,0.911c214.818,0,402.036-19.571,500.421-48.541
	c46.785-13.777,73.507-29.676,73.507-46.612v-0.001C1633.615,268.178,1376.66,225.577,1059.691,225.577z"/>
<path style="fill:#786F70;" d="M1060.66,239.48c-285.167,0-516.34,31.35-516.34,70.022c0,16.104,40.156,30.927,107.555,42.753
	c94.425-16.578,242.361-27.267,408.785-27.267c166.418,0,314.347,10.688,408.773,27.264c67.403-11.824,107.568-26.646,107.568-42.75
	C1577,270.83,1345.826,239.48,1060.66,239.48z"/>
<path style="fill:#958F90;" d="M1060.66,324.988c-166.424,0-314.36,10.689-408.786,27.267
	c64.868,11.39,154.993,19.999,259.014,24.274c0.227,0.009,0.456,0.018,0.683,0.027c4.319,0.177,8.664,0.345,13.03,0.506
	c0.549,0.02,1.1,0.04,1.652,0.06c4.128,0.151,8.279,0.294,12.447,0.432c0.614,0.02,1.226,0.041,1.841,0.061
	c4.319,0.14,8.661,0.272,13.023,0.397c0.391,0.011,0.779,0.023,1.171,0.035c9.536,0.27,19.168,0.503,28.889,0.701
	c0.794,0.016,1.595,0.03,2.39,0.045c3.923,0.077,7.859,0.149,11.81,0.214c1.294,0.021,2.592,0.04,3.889,0.06
	c3.455,0.053,6.922,0.103,10.398,0.146c1.529,0.02,3.06,0.038,4.592,0.055c3.349,0.038,6.708,0.071,10.074,0.101
	c1.506,0.013,3.008,0.027,4.518,0.039c3.617,0.027,7.246,0.048,10.882,0.066c1.254,0.005,2.504,0.014,3.76,0.019
	c4.891,0.019,9.797,0.03,14.721,0.03c4.925,0,9.831-0.011,14.721-0.03c1.256-0.005,2.505-0.013,3.76-0.019
	c3.635-0.017,7.266-0.038,10.881-0.066c1.509-0.012,3.012-0.026,4.518-0.039c3.367-0.03,6.726-0.063,10.074-0.101
	c1.532-0.017,3.063-0.035,4.592-0.055c3.476-0.043,6.94-0.093,10.397-0.146c1.297-0.02,2.597-0.039,3.893-0.06
	c3.947-0.065,7.881-0.137,11.8-0.214c0.799-0.016,1.602-0.029,2.4-0.045c9.719-0.198,19.349-0.431,28.884-0.701
	c0.396-0.012,0.788-0.024,1.184-0.035c4.356-0.125,8.693-0.257,13.009-0.397c0.62-0.02,1.236-0.041,1.856-0.061
	c4.161-0.137,8.305-0.28,12.426-0.431c0.558-0.02,1.116-0.04,1.674-0.061c4.357-0.161,8.693-0.329,13.003-0.505
	c0.235-0.01,0.473-0.019,0.709-0.028c104.017-4.274,194.138-12.884,259.005-24.273
	C1375.02,335.677,1227.085,324.988,1060.66,324.988z"/>
<path style="fill:#49291F;" d="M1343.267,858.603c-52.047-30.947-244.24-47.033-441.003-49.09
	c-6.394,19.648-15.845,37.59-26.46,49.09c-22.79,24.69-77.88,39.441-142.519,39.441c-34.179,0-71.029-4.125-107.184-13.086
	c-77.075-19.102-111.525-27.52-120.422-56.234c-29.282,4.375-53.289,9.469-70.164,15.291c-32.086,12.195-49.997,25.53-50.369,39.514
	c-0.004,0.15-0.036,0.298-0.036,0.447c0,19.853,35.206,38.422,96.376,54.279c1.415-5.184,2.85-8.614,4.283-9.968
	c1.607-1.521,7.821-2.19,17.539-2.19c72.23,0,337.655,37.033,337.655,37.033c0.844,6.189,1.578,13.106,2.219,20.692
	c68.491,3.639,141.918,5.617,218.309,5.617c83.521,0,163.487-2.366,237.342-6.682c1.437-0.084,2.856-0.174,4.279-0.263
	c0.004-0.005,0.009-0.008,0.012-0.013c-1.418,0.088-2.833,0.178-4.266,0.261C1299.444,982.51,1450.49,922.358,1343.267,858.603z"/>
<path style="fill:#3F221B;" d="M1552.321,851.242c-92.646-32.187-470.897-73.349-609.704-71.085
	c9.302-0.258,18.674-0.483,28.101-0.682c-4.307,0.09-8.635,0.169-12.917,0.272c-0.44,0.01-0.876,0.023-1.317,0.034
	c-7.191,0.175-14.333,0.371-21.448,0.581c-1.677,0.049-3.356,0.099-5.029,0.15c-7.023,0.216-14.01,0.448-20.952,0.697
	c-1.459,9.482-3.788,19.078-6.788,28.3c-0.002,0.002-0.002,0.003-0.002,0.004c196.763,2.057,388.957,18.142,441.003,49.09
	c107.223,63.755-43.824,123.907-44.409,124.139c109.461-6.398,205.339-17.106,279.414-30.778
	C1578.836,951.416,1647.745,884.394,1552.321,851.242z"/>
<path style="fill:#3F221B;" d="M504.516,824.174c-27.311,6.175-50.559,12.821-69.035,19.853
	c16.877-5.827,40.898-10.925,70.199-15.303c-0.003-0.007-0.005-0.013-0.007-0.019C505.222,827.249,504.837,825.738,504.516,824.174z
	"/>
<path style="fill:#59342D;" d="M472.4,997.104c-10.201,7.491-16.783,20.339-28.576,38.028
	c-34.842,52.263-18.449,211.957-15.541,278.738c2.101,48.304,19.841,77.138,52.091,101.497
	c-8.134-60.424-14.418-120.132-16.542-163.529C460.25,1178.613,464.937,1068.285,472.4,997.104z"/>
<path style="fill:#59342D;" d="M1195.192,1171.597c-11.615-101.623-72.137-133.562-72.137-133.562
	c-37.585-4.936-156.707-2.416-277.196-5.609c0,0,0,0.002,0,0.002c3.907,112.99-1.263,294.543,7.289,421.634
	c137.075-8.321,271.703-28.352,306.013-61.873C1230.565,1322.424,1204.096,1249.537,1195.192,1171.597z"/>
<path style="fill:#A39A9A;" d="M505.122,788.918c-2.174,14.352-2.541,25.797-0.618,35.208
	c94.335-21.303,237.632-36.928,404.55-42.923c5.635-36.625-1.692-71.537-33.251-76.487c0,0-94.973-15.256-173.578-26.135
	c-0.007-0.001-0.015-0.003-0.022-0.003c-18.699-0.157-36.582-0.231-53.464-0.231c-27.433,0-52.224,0.195-73.581,0.542
	c0,0-0.001,0.001-0.001,0.002C545.525,698.32,512.356,741.187,505.122,788.918z"/>
<path style="fill:#958C8B;" d="M648.74,678.348c16.882,0,34.765,0.073,53.464,0.231c-43.545-6.027-82.064-10.709-96.628-10.709
	c-1.023,0-1.922,0.023-2.702,0.07c-8.073,0.489-17.692,4.379-27.715,10.95C596.516,678.542,621.306,678.348,648.74,678.348z"/>
<path style="fill:#7E5D54;" d="M858.873,809.282c-134.809,0-267.1,6.564-353.202,19.422c0.002,0.007,0.005,0.012,0.007,0.019
	c8.897,28.714,43.347,37.133,120.422,56.234c36.155,8.961,73.005,13.086,107.184,13.086c64.638,0,119.728-14.752,142.519-39.441
	c10.615-11.5,20.066-29.441,26.46-49.09c0-0.001,0-0.003,0.002-0.004C887.814,809.358,873.32,809.282,858.873,809.282z"/>
<path style="fill:#765850;" d="M858.873,809.282c14.447,0,28.94,0.075,43.392,0.227c3-9.221,5.329-18.818,6.788-28.3
	c0-0.002,0.001-0.004,0.001-0.005c-166.939,5.999-310.24,21.639-404.542,42.956c0.001,0.004,0.003,0.009,0.004,0.014
	c0.322,1.564,0.706,3.075,1.156,4.531C591.774,815.846,724.065,809.282,858.873,809.282z"/>
<path style="fill:#765850;" d="M500.591,989.439c20.069-0.001,50.729,6.362,102.283,19.742
	c57.878,15.021,150.836,20.806,242.985,23.247c0,0,0-0.002,0-0.002c-0.627-18.128-1.49-34.512-2.677-48.603
	c-152.276-8.09-280.096-24.41-361.699-45.561c-3.219,11.793-6.337,32.663-9.079,58.808
	C479.261,992.041,487.763,989.44,500.591,989.439z"/>
<path style="fill:#7E5D54;" d="M843.181,983.824c0,0,0-0.002,0-0.003c-0.641-7.586-1.375-14.503-2.219-20.692
	c0,0-265.425-37.033-337.655-37.033c-9.719,0-15.933,0.669-17.539,2.19c-1.432,1.354-2.867,4.784-4.283,9.968
	c-0.001,0.003-0.001,0.005-0.003,0.008C563.086,959.414,690.905,975.734,843.181,983.824z"/>
<path style="fill:#A39A9A;" d="M614.402,1832.563c10.41,16.946,20.619,31.84,30.005,43.085
	c102.542,13.911,217.646,18.429,300.824,19.671c-3.002-11.998-5.73-23.807-8.421-36.03
	C844.298,1857.511,716.703,1851.352,614.402,1832.563z"/>
<path style="fill:#765850;" d="M910.985,1738.165C910.985,1738.165,910.985,1738.165,910.985,1738.165
	c-10.106-45.39-23.66-102.572-43.892-179.819c-6.731-25.7-11.099-61.963-13.946-104.278c-50.039,3.037-100.429,4.515-146.359,4.515
	c-90.087,0-163.091-5.675-183.136-16.378c-16.51-8.815-30.95-17.453-43.265-26.745c12.853,95.457,30.317,192.66,43.265,229.991
	c6.558,18.905,18.901,48.253,34.017,80.331l0,0C660.931,1730.558,798.158,1736.156,910.985,1738.165z"/>
<path style="fill:#6C514C;" d="M557.669,1725.784c9.474,20.101,20.033,41.267,30.948,61.622v0
	c85.565,4.968,212.251,10.455,335.956,13.942c0,0,0-0.002-0.002-0.003c-3.886-18.594-8.257-39.249-13.586-63.18
	C798.158,1736.156,660.931,1730.558,557.669,1725.784z"/>
<path style="fill:#5B4849;" d="M588.617,1787.406c8.496,15.843,17.206,31.19,25.778,45.145c0.002,0.004,0.005,0.008,0.007,0.012
	c102.301,18.789,229.896,24.948,322.408,26.726c0,0,0,0,0,0c-3.921-17.817-7.758-36.506-12.238-57.941
	C800.867,1797.861,674.181,1792.374,588.617,1787.406z"/>
<path style="fill:#89675F;" d="M523.652,1442.206c20.045,10.703,93.049,16.378,183.136,16.378c45.931,0,96.32-1.477,146.359-4.515
	c0-0.002,0-0.005,0-0.006c-8.552-127.091-3.382-308.644-7.289-421.634c-92.148-2.442-185.107-8.227-242.985-23.247
	c-51.553-13.38-82.213-19.743-102.283-19.742c-12.828,0.001-21.33,2.602-28.188,7.632c-0.001,0.011-0.003,0.023-0.004,0.033
	c-7.463,71.181-12.15,181.509-8.568,254.734c2.124,43.397,8.408,103.105,16.542,163.529c0.003,0.031,0.007,0.063,0.012,0.094
	C492.702,1424.753,507.142,1433.391,523.652,1442.206z"/>
<path style="fill:#331A15;" d="M1278.425,784.055c-10.476-0.553-21.068-1.067-31.767-1.541c-5.35-0.237-10.727-0.464-16.129-0.68
	c-5.403-0.217-10.833-0.424-16.287-0.62c-5.453-0.196-10.933-0.382-16.437-0.558c-5.503-0.176-11.032-0.341-16.583-0.495
	c-5.552-0.155-11.126-0.298-16.725-0.432c-11.195-0.266-22.481-0.49-33.85-0.67c-22.738-0.36-45.809-0.545-69.156-0.545
	c-9.711,0-19.366,0.037-28.974,0.102c-0.706,0.005-1.413,0.008-2.118,0.013c-1.269,0.009-2.518,0.029-3.785,0.039
	c-7.922,0.064-15.822,0.142-23.669,0.249c-1.537,0.021-3.066,0.046-4.6,0.069c-8.586,0.126-17.138,0.271-25.629,0.447
	c-0.666,0.013-1.331,0.028-1.998,0.042c-9.426,0.199-18.799,0.424-28.101,0.682c138.807-2.264,517.059,38.898,609.704,71.085
	c95.717,33.254,26.074,100.603,25.931,100.742c9.304-1.716,18.263-3.479,26.86-5.286c0.091-0.02,0.181-0.039,0.272-0.058
	c5.406-1.138,10.662-2.295,15.777-3.467c0.485-0.111,0.969-0.222,1.452-0.334c4.844-1.12,9.55-2.255,14.123-3.404
	c0.402-0.101,0.814-0.202,1.214-0.303c7.176-1.818,13.997-3.673,20.471-5.561c1.082-0.316,2.139-0.634,3.2-0.951
	c3.019-0.902,5.957-1.813,8.812-2.73c1.25-0.402,2.488-0.805,3.705-1.209c2.212-0.735,4.368-1.474,6.474-2.219
	c1.641-0.58,3.261-1.161,4.835-1.746c1.351-0.501,2.681-1.004,3.982-1.509c2.137-0.829,4.216-1.664,6.219-2.503
	c1.073-0.45,2.102-0.903,3.137-1.355c1.692-0.74,3.334-1.484,4.922-2.231c1.061-0.499,2.094-1,3.107-1.503
	c0.874-0.434,1.765-0.866,2.604-1.302c0.069-0.036,0.138-0.072,0.206-0.108c0.614-0.32,1.184-0.642,1.778-0.963
	c0.662-0.358,1.345-0.715,1.984-1.075c0.045-0.025,0.095-0.051,0.14-0.076c0.096-0.054,0.188-0.108,0.283-0.162
	c1.242-0.706,2.447-1.414,3.598-2.126c0.004-0.003,0.007-0.005,0.012-0.008c0.348-0.215,0.66-0.432,0.999-0.648
	c0.547-0.348,1.084-0.695,1.609-1.044c1.573-1.046,3.057-2.098,4.429-3.156c0.371-0.287,0.715-0.575,1.072-0.863
	c0.345-0.277,0.704-0.554,1.034-0.832c0.128-0.108,0.27-0.215,0.396-0.323c0.591-0.507,1.124-1.017,1.668-1.526
	c0.231-0.216,0.486-0.432,0.709-0.648c0.148-0.144,0.283-0.289,0.427-0.433c0.413-0.412,0.792-0.826,1.173-1.24
	c0.357-0.387,0.714-0.774,1.043-1.162c0.277-0.327,0.527-0.655,0.785-0.983c0.173-0.219,0.363-0.438,0.527-0.658
	c0.224-0.3,0.429-0.602,0.636-0.903c0.277-0.401,0.539-0.802,0.787-1.205c0.282-0.457,0.538-0.915,0.783-1.374
	c0.008-0.017,0.017-0.034,0.026-0.052c0.129-0.244,0.254-0.488,0.372-0.733c0.057-0.119,0.126-0.237,0.18-0.356
	c0.229-0.492,0.419-0.987,0.603-1.482c0.132-0.353,0.274-0.706,0.384-1.06c0.073-0.236,0.136-0.473,0.199-0.709
	c0.052-0.194,0.081-0.389,0.127-0.584c0.029-0.128,0.057-0.257,0.084-0.385c0.061-0.294,0.146-0.588,0.192-0.883
	c0.074-0.476,0.094-0.954,0.126-1.432l0,0c0.026-0.381,0.083-0.759,0.083-1.141c0-0.001,0-0.003,0-0.004c0-0.001,0-0.001,0-0.001
	l0,0c0-5.461-2.662-10.824-7.794-16.061c-1.71-1.745-3.695-3.477-5.948-5.193c-1.127-0.859-2.319-1.713-3.578-2.563
	C1667.671,824.44,1498.43,795.663,1278.425,784.055z"/>
<path style="fill:#B6ADAD;" d="M888.716,551.677c11.775,0,19.574-0.739,22.073-2.297c19.259-12.01,11.968-71.24,11.703-96.119
	c-0.232-21.475-19.106-24.379-19.106-24.379c-2.53,0.195-5.463,0.288-8.776,0.288c-70.838,0-311.714-42.711-335.29-49.648
	c-12.898-3.793-19.054-6-24.48-6c-4.956,0-9.303,1.842-17.619,6c-17.426,8.711-15.972,58.071-13.971,73.739
	c2.006,15.672,6.709,23.531,6.709,23.531C551.654,518.482,809.744,551.677,888.716,551.677z"/>
<path style="fill:#686363;" d="M1560.112,367.344c11.698,26.059,17.836,75.327-7.791,108.965
	c-30.971,40.647-234.216,50.328-265.187,63.877c-12.956,5.668-16.744,12.581-16.83,18.717c3.711-0.243-124.287,6.362-198.44,6.618
	c-3.996,14.443-16.391,23.132-16.576,23.261c124.759-4.116,272.259-16.21,444.771-40.854c0,0,9.851-8.783,1.933-16.897
	c-0.753,0.151-1.529,0.298-2.286,0.448c0.008-0.018,0.018-0.037,0.025-0.055c38.252-7.565,69.62-16.119,92.29-25.415
	c0.094-0.038,0.19-0.076,0.283-0.114c2.602-1.071,5.089-2.151,7.459-3.241c0.091-0.042,0.177-0.084,0.267-0.125
	c2.239-1.034,4.363-2.076,6.389-3.126c0.167-0.086,0.341-0.173,0.507-0.259c2.026-1.06,3.938-2.129,5.743-3.205
	c0.001,0,0.001,0,0.003-0.001c0.226-0.135,0.439-0.271,0.662-0.406c0.001-0.001,0.003-0.002,0.004-0.003
	c1.632-0.99,3.173-1.986,4.616-2.988c0.003-0.002,0.006-0.004,0.01-0.006c0.158-0.11,0.329-0.22,0.486-0.33
	c0-0.001,0.001-0.001,0.002-0.003c1.502-1.061,2.882-2.129,4.168-3.204c0.001,0,0.001-0.001,0.002-0.002
	c0.237-0.198,0.457-0.396,0.686-0.593c0.001-0.001,0.002-0.002,0.004-0.004c1.14-0.985,2.197-1.976,3.152-2.971
	c0.002-0.003,0.006-0.006,0.008-0.009c0.106-0.11,0.228-0.221,0.332-0.331c0.001-0.001,0.001-0.002,0.002-0.004
	c1.001-1.07,1.871-2.147,2.654-3.228c0.001-0.001,0.003-0.002,0.003-0.003c0.174-0.24,0.334-0.479,0.496-0.719
	c0.001-0.001,0.001-0.003,0.003-0.004c0.691-1.02,1.307-2.044,1.801-3.074c0.002-0.003,0.005-0.006,0.006-0.009
	c0.037-0.079,0.089-0.157,0.125-0.236c0.001-0.001,0.001-0.002,0.001-0.003c0.506-1.09,0.87-2.185,1.154-3.285c0,0,0-0.001,0-0.001
	c0.068-0.262,0.125-0.524,0.18-0.786c0-0.001,0-0.001,0-0.002c0.232-1.11,0.391-2.223,0.391-3.342V320.731
	C1633.619,337.668,1606.897,353.567,1560.112,367.344z"/>
</svg>
